<svg height="512" viewBox="0 0 512 512" width="512" xmlns="http://www.w3.org/2000/svg"><g id="Filled_outline" data-name="Filled outline"><path d="m24 72h464v368h-464z" fill="#ffb431"/><path d="m56 104h400v304h-400z" fill="#f1ddc1"/><g fill="#f99e0c"><path d="m67.32 104h-11.32v11.32l-32-32v-11.32h11.32z"/><path d="m488 72v11.32l-32 32v-11.32h-11.32l32-32z"/><path d="m488 428.68v11.32h-11.32l-32-32h11.32v-11.32z"/><path d="m67.32 408-32 32h-11.32v-11.32l32-32v11.32z"/></g><path d="m266.582 278.452a11.9 11.9 0 0 1 14.966 14.966 11.9 11.9 0 0 1 0 21.164 11.9 11.9 0 0 1 -14.966 14.966 11.9 11.9 0 0 1 -21.164 0 11.9 11.9 0 0 1 -14.966-14.966 11.9 11.9 0 0 1 0-21.164 11.9 11.9 0 0 1 14.966-14.966 11.9 11.9 0 0 1 21.164 0z" fill="#de5540"/><path d="m353.019 222.445a221.083 221.083 0 0 0 -194.038 0l-13.962-28.793a252.9 252.9 0 0 1 221.962 0z" fill="#d8c6ad"/><path d="m456 104h-400v304h16v-288h384z" fill="#edd7b9"/><path d="m24 448h464a8 8 0 0 0 8-8v-88h-16v68.687l-16-16v-297.374l16-16v244.687h16v-264a8 8 0 0 0 -8-8h-464a8 8 0 0 0 -8 8v56h16v-36.687l16 16v297.374l-16 16v-276.687h-16v296a8 8 0 0 0 8 8zm19.313-368h425.374l-16 16h-393.374zm404.687 32v288h-384v-288zm-388.687 304h393.374l16 16h-425.374zm20.687-88v-96h16v96a16.019 16.019 0 0 0 16 16 8 8 0 0 1 8 8 16.019 16.019 0 0 0 16 16h240a16.019 16.019 0 0 0 16-16 8 8 0 0 1 8-8 16.019 16.019 0 0 0 16-16v-144a16.019 16.019 0 0 0 -16-16 8 8 0 0 1 -8-8 16.019 16.019 0 0 0 -16-16h-240a16.019 16.019 0 0 0 -16 16 8 8 0 0 1 -8 8 16.019 16.019 0 0 0 -16 16v32h-16v-32a32.059 32.059 0 0 1 24.813-31.187 32.059 32.059 0 0 1 31.187-24.813h240a32.059 32.059 0 0 1 31.187 24.813 32.059 32.059 0 0 1 24.813 31.187v144a32.059 32.059 0 0 1 -24.813 31.187 32.059 32.059 0 0 1 -31.187 24.813h-240a32.059 32.059 0 0 1 -31.187-24.813 32.059 32.059 0 0 1 -24.813-31.187zm147.715 4.284a19.823 19.823 0 0 0 14.044 5.839h.107a19.828 19.828 0 0 0 14.134 5.877 19.83 19.83 0 0 0 14.134-5.877h.108a19.934 19.934 0 0 0 19.881-19.989 19.934 19.934 0 0 0 0-28.268 19.934 19.934 0 0 0 -19.989-19.989 19.828 19.828 0 0 0 -14.134-5.877 19.83 19.83 0 0 0 -14.134 5.877h-.108a19.934 19.934 0 0 0 -19.881 19.989 19.934 19.934 0 0 0 0 28.268 19.828 19.828 0 0 0 5.838 14.15zm6.4-31.755a8 8 0 0 0 3.956-9.55 3.9 3.9 0 0 1 4.908-4.907 8 8 0 0 0 9.55-3.956 3.9 3.9 0 0 1 6.94 0 8.005 8.005 0 0 0 9.551 3.956 3.9 3.9 0 0 1 4.907 4.908 8 8 0 0 0 3.956 9.55 3.9 3.9 0 0 1 0 6.941 8 8 0 0 0 -3.956 9.55 3.9 3.9 0 0 1 -4.908 4.907 8 8 0 0 0 -9.55 3.956 3.9 3.9 0 0 1 -6.941 0 8 8 0 0 0 -9.55-3.956 3.9 3.9 0 0 1 -4.907-4.908 8 8 0 0 0 -3.956-9.55 3.9 3.9 0 0 1 0-6.941zm136.357-114.076a260.859 260.859 0 0 0 -228.944 0 8 8 0 0 0 -3.708 10.689l13.963 28.793a8 8 0 0 0 10.689 3.708 213.122 213.122 0 0 1 187.056 0 8 8 0 0 0 10.689-3.708l13.963-28.793a8 8 0 0 0 -3.708-10.689zm-21.22 25.424a228.84 228.84 0 0 0 -186.5 0l-6.985-14.4a244.744 244.744 0 0 1 200.474 0zm-29.252 36.123h-80v-16h80zm-96 0h-32v-16h32zm-96 48h72v16h-72zm16 48v-16h40v16zm-8-80h16v16h-16zm32 16v-16h24v16zm216 32h-72v-16h72zm-56 32v-16h40v16zm40-80v16h-40v-16zm-272-120h-16v-16h16zm336 0h-16v-16h16zm-336 240h-16v-16h16zm320-16h16v16h-16z"/></g></svg>