<?xml version="1.0" encoding="iso-8859-1"?>
<!-- Generator: Adobe Illustrator 19.0.0, SVG Export Plug-In . SVG Version: 6.00 Build 0)  -->
<svg version="1.1" id="Capa_1" xmlns="http://www.w3.org/2000/svg" xmlns:xlink="http://www.w3.org/1999/xlink" x="0px" y="0px"
	 viewBox="0 0 511.931 511.931" style="enable-background:new 0 0 511.931 511.931;" xml:space="preserve">
<g transform="translate(0 -1)">
	<path style="fill:#C9CED1;" d="M424.061,345.088l-3.113-1.799l-3.183-1.868h-0.069v-43.174l6.365-3.667v-11.624
		c-1.378-46.869-14.078-92.709-37.016-133.604c-0.213,0.378-0.398,0.771-0.553,1.176c0.138-0.415,0.346-0.761,0.484-1.245h0.069
		c1.132-5.58-0.068-11.38-3.321-16.052C357.847,91.371,308.169,47.505,273.16,27.232C238.357,7.168,189.164-6.255,163.08,5.23
		l-0.208,0.069l-1.245,0.761l-0.138,0.138l-33.211,19.165l-1.453,0.831c-3.293,4.245-3.728,10.048-1.107,14.737v0.069
		C102.332,56.5,87.733,86.874,87.733,128.664v11.693l6.296,3.598v29.751l-25.392,14.668l-0.346,0.208
		c-0.498,0.226-0.983,0.481-1.453,0.761c-6.435,3.944-10.517,12.8-10.517,25.254v60.402c0,23.109,14.045,50.024,31.412,60.056
		l1.799,1.038l32.865,18.958c3.779,2.555,8.519,3.243,12.869,1.868l0.969-0.484l0.208-0.069c0.5-0.275,0.984-0.575,1.453-0.899
		l33.072-19.096l1.176-0.692c4.863-4.31,7.359-10.693,6.711-17.159v-83.235c-0.283-18.087-9.111-34.972-23.801-45.526l-1.315-0.761
		v-43.243l6.227-3.598v-11.624c-0.479-15.852,3.347-31.537,11.07-45.388c18.335-1.937,48.294,8.579,67.529,19.719
		c22.141,12.731,58.534,42.69,75.07,68.636c2.441,4.348,6.373,7.666,11.07,9.341c16.76,30.134,26.038,63.852,27.053,98.318v11.624
		l6.296,3.667v38.677l-15.983,9.271l-0.899,0.484c-3.382,2.04-5.839,5.315-6.85,9.133c-1.031,3.266-1.522,6.678-1.453,10.102v83.235
		c0.029,2.973,0.33,5.938,0.899,8.856c2.351,13.357,9.918,25.231,21.034,33.003l32.865,18.958h1.799v1.038
		c5.772,4.045,13.212,4.854,19.719,2.145l2.145-1.245l32.311-18.612l2.076-1.246l0.208-0.138c6.9-6.208,10.443-15.324,9.548-24.562
		v-60.402C455.473,382.035,441.359,355.051,424.061,345.088z M360.407,163.189c-0.401-0.007-0.797-0.077-1.176-0.208v-0.069
		C359.646,162.982,359.992,163.12,360.407,163.189L360.407,163.189z M160.312,21.005c0,0.069,0.069,0.208,0.069,0.277
		c-0.138,0-0.277-0.069-0.415,0C160.063,21.169,160.181,21.076,160.312,21.005z"/>
	<polygon style="fill:#445C71;" points="383.173,310.908 383.173,361.416 378.952,358.995 361.309,348.755 358.057,346.887 
		358.057,296.448 358.265,296.517 	"/>
	<polygon style="fill:#717275;" points="358.265,296.517 358.057,296.448 358.057,296.378 	"/>
	<path style="fill:#B4B4B3;" d="M87.733,190.796v144.259c-17.366-10.032-31.412-36.947-31.412-60.056v-60.402
		c0-12.454,4.082-21.31,10.517-25.254c0.47-0.281,0.955-0.535,1.453-0.761l0.346-0.208C75.016,186.02,82.143,186.924,87.733,190.796
		z"/>
	<path style="fill:#C9CED1;" d="M144.329,255.211v83.235c0.576,6.36-1.796,12.632-6.435,17.021
		c-0.469,0.325-0.953,0.625-1.453,0.899l-0.208,0.069l-0.969,0.484c-4.35,1.375-9.09,0.687-12.869-1.868l-32.865-18.958
		l-1.799-1.038V190.796l6.296,3.667l25.115,14.461l1.384,0.83C133.674,217.295,144.329,237.706,144.329,255.211z"/>
	<g>
		<path style="fill:#717275;" d="M94.029,173.706v20.757l-6.296-3.667c-5.59-3.872-12.717-4.776-19.096-2.422L94.029,173.706z"/>
		<path style="fill:#717275;" d="M144.295,259.24c-1.212,0.001-2.403-0.318-3.453-0.926l-18.865-10.892
			c-2.143-1.235-3.463-3.52-3.464-5.993c-0.001-2.473,1.319-4.759,3.46-5.995c2.142-1.236,4.781-1.236,6.922,0.002l18.865,10.892
			c2.715,1.566,4.038,4.761,3.225,7.787C150.174,257.141,147.429,259.244,144.295,259.24z"/>
		<path style="fill:#717275;" d="M144.295,288.077c-1.212,0.001-2.403-0.318-3.453-0.926l-18.865-10.885
			c-2.143-1.235-3.463-3.52-3.464-5.993c-0.001-2.473,1.319-4.759,3.46-5.995c2.142-1.236,4.781-1.236,6.922,0.002l18.865,10.885
			c2.714,1.566,4.038,4.761,3.225,7.787S147.429,288.081,144.295,288.077L144.295,288.077z"/>
		<path style="fill:#717275;" d="M144.295,316.922c-1.212,0.001-2.403-0.318-3.453-0.926l-18.865-10.892
			c-3.308-1.912-4.441-6.142-2.531-9.451s6.14-4.444,9.45-2.536l18.865,10.892c2.714,1.566,4.038,4.761,3.225,7.787
			C150.174,314.824,147.429,316.926,144.295,316.922L144.295,316.922z"/>
	</g>
	<path style="fill:#445C71;" d="M352.451,169.347c0.009-0.076-0.016-0.152-0.069-0.208c-0.262,1.009-0.734,1.952-1.384,2.768
		c-0.195,0.264-0.428,0.497-0.692,0.692c-0.365,0.293-0.759,0.548-1.176,0.761l-19.442,9.271c-1.176,0.507-2.47,0.675-3.736,0.484
		h-0.069c-0.415-0.069-0.83-0.208-1.176-0.277c-4.697-1.675-8.629-4.992-11.07-9.341c-16.536-25.946-52.93-55.905-75.07-68.636
		c-19.235-11.14-49.194-21.656-67.529-19.719c-2.568,0.167-5.092,0.752-7.472,1.73c-2.799,0.872-5.845,0.386-8.234-1.315
		c-0.749-0.397-1.447-0.885-2.076-1.453c-0.718-0.567-1.389-1.192-2.006-1.868c-0.623-0.623-1.245-1.315-1.868-2.006
		c0.069-0.069,0-0.138-0.069-0.138c-0.277-0.415-0.623-0.83-0.899-1.245c-0.277-0.415-0.554-0.83-0.83-1.315l-14.53-23.663
		l-4.982-8.165c-0.346-0.554-0.623-1.107-0.899-1.591c-0.32-0.578-0.598-1.18-0.83-1.799c-0.214-0.449-0.399-0.911-0.554-1.384
		h-0.069c-2.621-4.689-2.185-10.492,1.107-14.737l1.453-0.83c10.036-3.972,20.904-5.375,31.619-4.082h0.069
		c0.138-0.069,0.277,0,0.415,0h0.069c27.562,3.111,54.169,11.948,78.115,25.946c35.148,20.203,84.757,64.069,110.634,105.998
		c0.962,1.473,1.751,3.052,2.352,4.705C353.146,161.522,353.463,165.551,352.451,169.347z"/>
	<g>
		<path style="fill:#717275;" d="M126.34,42.316c-0.19-0.332-0.352-0.679-0.484-1.038c-0.069-0.138-0.069-0.208-0.138-0.277v-0.069
			h0.069C125.941,41.405,126.126,41.867,126.34,42.316z"/>
		<path style="fill:#717275;" d="M148.412,78.848c-0.276-0.454-0.576-0.893-0.899-1.315L133.052,53.87l14.53,23.663
			C147.858,78.017,148.135,78.432,148.412,78.848z"/>
		<path style="fill:#717275;" d="M151.248,82.238h-0.069c-0.554-0.554-1.176-1.245-1.799-2.006
			C150.003,80.923,150.626,81.615,151.248,82.238z"/>
		<path style="fill:#717275;" d="M352.451,169.347c-0.26,0.962-0.76,1.843-1.453,2.56c0.65-0.815,1.122-1.758,1.384-2.768
			C352.435,169.195,352.46,169.271,352.451,169.347z"/>
	</g>
	<polygon style="fill:#394F63;" points="153.742,145.754 153.742,188.997 153.672,188.997 119.147,208.923 119.147,158.484 
		125.443,162.082 	"/>
	<path style="fill:#C9CED1;" d="M389.467,363.046v143.152h-1.799l-32.865-18.958c-11.115-7.772-18.683-19.646-21.034-33.003
		c-0.57-2.918-0.871-5.883-0.899-8.856v-83.235c-0.069-3.424,0.422-6.836,1.453-10.102c1.011-3.818,3.467-7.093,6.85-9.133
		l0.899-0.484c4.851-1.887,10.323-1.239,14.599,1.73l1.384,0.761l3.252,1.868l17.643,10.24l4.221,2.422L389.467,363.046z"/>
	<g>
		<path style="fill:#717275;" d="M455.473,405.144v60.402c0.895,9.239-2.648,18.354-9.548,24.562l-0.208,0.138l-2.076,1.246
			l-32.311,18.612c6.915-6.228,10.459-15.37,9.548-24.631V425.07c0-23.109-14.045-50.024-31.412-60.056l-6.296-3.598l3.183-1.799
			l31.343-18.197h0.069l3.183,1.868l3.114,1.799C441.359,355.051,455.473,382.035,455.473,405.144z"/>
		<path style="fill:#717275;" d="M178.855,235.284v83.235c0.648,6.465-1.849,12.849-6.711,17.159l-1.176,0.692l-33.072,19.096
			c4.639-4.388,7.01-10.661,6.435-17.021v-83.235c0-17.505-10.655-37.916-23.801-45.457l-1.384-0.83l34.526-19.926h0.069
			l1.315,0.761C169.744,200.312,178.572,217.198,178.855,235.284z"/>
	</g>
	<path style="fill:#394F63;" d="M387.045,149.282h-0.069c-0.138,0.484-0.346,0.83-0.484,1.245c-0.213,0.417-0.468,0.811-0.761,1.176
		c-0.282,0.339-0.583,0.662-0.899,0.969c-0.365,0.293-0.759,0.548-1.176,0.761l-19.442,9.271c-1.176,0.507-2.47,0.675-3.736,0.484
		h-0.069c-0.416-0.069-0.761-0.208-1.176-0.277c-2.947-0.971-5.592-2.687-7.68-4.982c-0.602-1.653-1.391-3.232-2.352-4.705
		c-25.877-41.929-75.485-85.795-110.634-105.998c-23.946-13.998-50.553-22.835-78.115-25.946h-0.069
		c0-0.069-0.069-0.208-0.069-0.277c-0.131,0.07-0.249,0.164-0.346,0.277h-0.069c-10.715-1.293-21.584,0.11-31.619,4.082
		l33.211-19.165l0.138-0.138l1.245-0.761l0.208-0.069c26.084-11.485,75.278,1.937,110.08,22.002
		c35.01,20.272,84.688,64.138,110.564,105.998C386.977,137.903,388.177,143.703,387.045,149.282z"/>
	<g>
		<path style="fill:#B4B4B3;" d="M424.061,282.956v11.624l-6.365,3.667l-28.229,16.259v-11.624
			c-0.06-12.287-1.102-24.549-3.113-36.67c-5.804-33.957-17.264-66.7-33.903-96.865c1.013-3.796,0.695-7.825-0.899-11.416
			c2.088,2.295,4.733,4.011,7.68,4.982v0.069c0.379,0.13,0.776,0.2,1.176,0.208h0.069c1.266,0.191,2.56,0.023,3.736-0.484
			l19.442-9.271c0.417-0.213,0.811-0.468,1.176-0.761c0.317-0.307,0.617-0.63,0.899-0.969c0.293-0.365,0.548-0.759,0.761-1.176
			c0.156-0.405,0.341-0.798,0.553-1.176C409.983,190.247,422.683,236.087,424.061,282.956z"/>
		<path style="fill:#B4B4B3;" d="M420.879,425.07v60.402c0.911,9.261-2.633,18.404-9.548,24.631l-2.145,1.245
			c-6.506,2.71-13.947,1.9-19.719-2.145v-144.19C406.833,375.047,420.879,401.961,420.879,425.07z"/>
	</g>
	<polygon style="fill:#394F63;" points="417.698,298.247 417.698,341.421 386.356,359.617 383.173,361.416 383.173,310.908 
		389.469,314.506 	"/>
	<path style="fill:#717275;" d="M358.055,335.124v11.762l-1.384-0.761c-4.276-2.969-9.748-3.617-14.599-1.73L358.055,335.124z"/>
	<polygon style="fill:#445C71;" points="119.147,158.484 119.147,208.923 94.031,194.463 94.031,143.955 106.9,151.358 
		115.895,156.616 	"/>
	<path style="fill:#B4B4B3;" d="M171.036,85.144c-7.724,13.851-11.549,29.536-11.07,45.388v11.624l-6.227,3.598l-28.298,16.329
		v-11.624c-0.076-8.887,0.994-17.747,3.183-26.361v-0.069c3.486-15.841,13.084-29.666,26.707-38.469
		c2.388,1.7,5.434,2.187,8.234,1.315C165.944,85.895,168.468,85.311,171.036,85.144z"/>
	<g>
		<path style="fill:#717275;" d="M357.709,375.531c-1.219,2.138-3.49,3.458-5.95,3.459c-1.212,0.005-2.404-0.305-3.459-0.899
			l-15.429-8.925v-5.051c-0.069-3.424,0.422-6.836,1.453-10.102l20.895,12.108c1.589,0.907,2.748,2.414,3.216,4.183
			S358.641,373.956,357.709,375.531z"/>
		<path style="fill:#717275;" d="M357.709,404.383c-1.219,2.138-3.49,3.458-5.95,3.459c-1.212,0.006-2.404-0.304-3.459-0.899
			l-15.429-8.925v-15.983l22.348,12.938c1.589,0.907,2.748,2.414,3.217,4.183C358.903,400.925,358.642,402.808,357.709,404.383z"/>
		<path style="fill:#717275;" d="M357.709,433.235c-1.219,2.138-3.49,3.458-5.95,3.459c-1.222,0.014-2.422-0.322-3.459-0.969
			L332.87,426.8v-15.983l22.348,12.938c1.592,0.923,2.75,2.442,3.217,4.221C358.903,429.756,358.642,431.649,357.709,433.235z"/>
		<path style="fill:#717275;" d="M357.709,462.087c-1.219,2.138-3.49,3.458-5.95,3.459c-1.222,0.014-2.422-0.322-3.459-0.969
			l-14.53-8.372c-0.57-2.918-0.871-5.883-0.899-8.856v-7.68l22.348,12.938c1.592,0.923,2.75,2.442,3.217,4.221
			S358.642,460.501,357.709,462.087z"/>
	</g>
</g>
<g>
</g>
<g>
</g>
<g>
</g>
<g>
</g>
<g>
</g>
<g>
</g>
<g>
</g>
<g>
</g>
<g>
</g>
<g>
</g>
<g>
</g>
<g>
</g>
<g>
</g>
<g>
</g>
<g>
</g>
</svg>
